<svg width="59" height="67" viewBox="0 0 59 67" fill="none" xmlns="http://www.w3.org/2000/svg">
<g id="_2565989875568">
<path id="Vector" fill-rule="evenodd" clip-rule="evenodd" d="M29.4345 33.0978C29.7433 32.8856 30.3052 32.2118 31.2722 31.538C36.7238 27.7405 44.7419 29.4811 47.7796 35.0511C50.6794 40.3681 48.5006 46.041 43.5737 48.865C42.2047 49.6496 40.0103 50.3209 38.1049 50.3146C38.1049 53.8802 38.2859 56.0265 36.4153 58.4294C35.7742 59.2531 34.8501 60.069 33.6899 60.605C32.239 61.2751 31.2305 61.2487 29.4343 61.2487C27.5553 61.2487 26.7122 61.271 25.1754 60.6084C24.0148 60.1081 23.0594 59.2224 22.4523 58.4288C20.5399 55.929 20.7647 53.9745 20.7647 50.3146C17.1418 50.3039 13.6776 48.4715 11.6769 45.6985C7.1892 39.4782 11.0086 30.8174 19.3467 29.6117C22.2271 29.1952 25.3358 29.9692 27.5575 31.5173C28.3337 32.0582 29.2987 33.014 29.4343 33.098L29.4345 33.0978ZM35.4065 5.18538C34.6618 3.83004 32.418 0.644951 31.3127 0C31.4468 2.89942 31.7114 3.64784 31.2051 6.76912C29.3776 18.0323 16.9324 22.4592 9.69354 30.4518C9.02712 31.3098 8.0329 32.698 7.61003 33.7131C7.42578 33.6068 7.19431 33.4162 6.99779 33.2771C6.2964 32.7815 5.51097 32.5081 4.60305 32.5183C0.10823 32.5688 -1.63155 41.5401 1.83205 47.1187C2.41504 48.0577 2.96593 48.7419 3.79471 49.3674C7.20064 51.938 5.53408 47.8879 8.29404 53.7303C10.2293 57.8274 13.6698 61.5534 17.6565 63.732C23.7649 67.0702 30.9219 67.407 37.4739 64.9581C43.6645 62.6443 48.4329 57.8912 51.1125 51.9413C52.372 48.8615 52.3407 51.2677 54.9663 49.448C57.3537 47.7933 58.5898 44.1225 58.837 41.1378C59.0855 38.1366 58.1373 33.6315 55.1303 32.6645C53.678 32.1975 52.846 32.8015 51.9387 33.1913C51.8552 33.0778 51.6078 32.3128 51.5336 32.1159C49.0288 25.4739 45.3978 24.4877 45.0201 16.1203C44.8387 16.3653 44.7256 16.7583 44.5716 17.054C43.0118 20.0491 37.3641 25.9706 34.3939 27.0608C34.5965 26.5716 34.9342 26.0275 35.1896 25.521C38.4816 18.9884 39.0501 11.8159 35.4069 5.18517L35.4065 5.18538Z" fill="#FFFAE9"/>
<path id="Vector_2" fill-rule="evenodd" clip-rule="evenodd" d="M32.6253 39.6588C31.4589 39.4275 31.2748 42.3963 32.5938 42.3304C32.7641 42.0673 32.7735 41.7072 33.121 41.6223C33.5395 41.5201 33.6927 41.8926 33.7076 42.2683C33.7403 43.0969 33.7125 44.0363 33.7031 44.8732C34.3542 44.874 35.0069 44.8585 35.6582 44.8528C36.2594 44.8475 37.198 44.9759 36.9436 44.2064C36.7937 43.9655 36.5148 43.916 36.2831 43.8044C36.2028 43.0848 36.9326 42.8277 37.6051 42.8431C38.2431 42.8576 39.0723 43.0527 38.9926 43.7796C38.6178 44.1637 38.2875 43.8121 38.2969 44.6254C38.574 44.8352 38.4736 44.8579 38.9229 44.8751C39.4392 44.8947 41.2219 44.9123 41.5505 44.8389C41.5348 44.0117 41.5401 43.16 41.546 42.3319C41.5491 41.9135 41.6114 41.5503 42.0511 41.6029C42.4392 41.6493 42.4431 42.0548 42.6435 42.3173C43.8193 42.4625 43.9665 39.4967 42.6324 39.6445C42.3511 40.1054 42.5212 40.3802 41.8106 40.3203C41.4307 39.8938 41.5474 39.4877 41.5474 38.8141C41.5474 38.2362 41.5515 37.6569 41.547 37.0794C40.9385 36.9931 39.6506 37.0438 38.986 37.0577C38.6196 37.0655 38.2378 37.1786 38.3092 37.6035C38.373 37.983 38.7679 37.9456 39.0366 38.1961C39.0273 38.8771 38.3282 39.0734 37.6683 39.0701C37.3193 39.0683 36.9872 38.9955 36.7269 38.874C36.4073 38.7247 36.2702 38.564 36.2907 38.1129C36.5649 37.9804 36.9608 37.9103 36.9921 37.5526C37.0365 37.0461 36.6146 37.0514 36.2251 37.0545C35.392 37.0608 34.5562 37.059 33.723 37.0561C33.5442 38.7026 34.0743 40.395 33.2077 40.3443C32.779 40.3191 32.8201 39.9437 32.6245 39.6592L32.6253 39.6588Z" fill="#FFFAE9"/>
<path id="Vector_3" fill-rule="evenodd" clip-rule="evenodd" d="M16.2526 42.331C16.4031 42.0668 16.4436 41.6989 16.7765 41.6202C17.1719 41.5267 17.3474 41.9003 17.3595 42.2674C17.3875 43.124 17.3441 44.0084 17.3662 44.8707C18.1766 44.885 19.0037 44.8506 19.819 44.8547C20.2239 44.8568 20.5934 44.8294 20.6384 44.4627C20.6995 43.9658 20.2347 44.0245 20.0116 43.8319C19.6693 43.5366 20.174 42.8567 21.1999 42.8434C21.8461 42.8348 22.7996 43.0616 22.6186 43.8204C22.3062 44.046 21.9919 43.9744 21.9475 44.3509C21.8901 44.8378 22.2933 44.8703 22.707 44.8772C23.2873 44.8868 24.703 44.942 25.2025 44.841C25.1805 44.0192 25.187 43.1556 25.194 42.3318C25.1974 41.9199 25.2688 41.5523 25.7111 41.6017C26.0755 41.6424 26.0959 42.0434 26.2963 42.3263C27.4983 42.4066 27.5562 39.4988 26.3047 39.6438C26.1033 39.9217 26.1123 40.3061 25.7215 40.3366C25.2739 40.3714 25.2007 39.9663 25.1956 39.5706C25.1848 38.7506 25.185 37.8971 25.2009 37.0773C24.5715 36.9916 23.5104 37.0605 22.8323 37.0583C22.4847 37.057 22.0641 37.0609 21.9708 37.391C21.8273 37.8985 22.3058 37.9196 22.5289 38.0586C22.8192 38.2394 22.6557 38.5927 22.4195 38.7766C21.9301 39.1577 21.0116 39.1395 20.4288 38.8907C20.0511 38.7293 19.9354 38.5862 19.9511 38.1105C20.2401 37.9562 20.4439 37.9494 20.6296 37.6824C20.7419 36.8656 20.0094 37.0564 19.3144 37.0564C18.6721 37.0564 18.0105 37.0407 17.3709 37.0611C17.3292 37.8192 17.3568 38.6766 17.3621 39.4434C17.3648 39.8258 17.3954 40.1896 17.0537 40.3192C16.5902 40.4949 16.5065 40.1121 16.3933 39.8505C16.1646 39.3225 15.4561 39.7039 15.3559 40.7656C15.2841 41.5271 15.472 42.3608 16.2528 42.3312L16.2526 42.331Z" fill="#FFFAE9"/>
<path id="Vector_4" fill-rule="evenodd" clip-rule="evenodd" d="M25.6724 54.9797C25.4111 57.6251 33.2388 57.8114 33.201 54.985L25.6724 54.9797Z" fill="#FFFAE9"/>
<path id="Vector_5" fill-rule="evenodd" clip-rule="evenodd" d="M31.0527 48.3983C29.6338 48.8255 30.1411 51.0885 31.6179 50.7409C33.0184 50.411 32.5436 47.9492 31.0527 48.3983Z" fill="#FFFAE9"/>
<path id="Vector_6" fill-rule="evenodd" clip-rule="evenodd" d="M27.214 48.4064C25.7884 48.8665 26.3493 51.1382 27.8328 50.7275C29.2323 50.34 28.6438 47.9451 27.214 48.4064Z" fill="#FFFAE9"/>
</g>
</svg>
